<svg width="476" height="94" viewBox="0 0 476 94" fill="none" xmlns="http://www.w3.org/2000/svg">
<path d="M278.53 3.1347C276.381 3.33812 274.387 3.41747 272.315 3.7094C270.14 4.01592 267.735 4.02544 265.43 4.1899C264.284 4.27205 263.138 4.40474 261.994 4.51817C261.172 4.60068 260.352 4.70302 259.53 4.77333C256.63 5.02037 253.729 5.24605 250.839 5.50456C249.721 5.60377 248.622 5.77358 247.496 5.89488C247.163 5.93188 246.815 5.9141 246.468 5.92074C246.597 5.82919 246.775 5.74084 246.83 5.65175C246.869 5.60438 246.68 5.51192 246.629 5.51578C246.296 5.55277 245.807 5.58608 245.66 5.66289C244.788 6.1276 243.367 6.21107 242.101 6.36496C239.845 6.63997 237.563 6.85636 235.293 7.11017C233.794 7.27827 232.318 7.48533 230.82 7.65038C228.937 7.8601 227.019 8.02109 225.147 8.24838C222.757 8.53636 220.391 8.88237 218.002 9.17264C216.556 9.34986 215.061 9.4579 213.615 9.63435C211.914 9.84287 210.236 10.0841 208.548 10.3229C207.618 10.4519 206.72 10.6312 205.788 10.7319C205.059 10.8114 204.368 10.8344 204.077 11.1273C204.049 11.1608 203.736 11.1932 203.541 11.2108C201.969 11.356 200.41 11.4942 198.838 11.6394C198.806 11.6418 198.777 11.6592 198.748 11.6706C197.285 12.2896 195.251 12.1888 193.481 12.4215C192.336 12.5725 191.227 12.7867 190.096 12.959C188.913 13.1381 187.688 13.2736 186.516 13.471C184.396 13.8263 182.331 14.238 180.187 14.5736C178.936 14.7701 177.881 15.2392 176.358 15.135C176.233 15.1258 176.041 15.1554 175.892 15.1826C174.086 15.5245 172.313 15.8854 170.476 16.202C168.96 16.4626 167.372 16.6619 165.838 16.9023C164.928 17.0451 164.05 17.2176 163.151 17.3695C161.416 17.6616 159.799 18.0868 157.857 18.1844C157.491 18.2017 156.885 18.3195 156.769 18.4132C156.32 18.7706 155.468 18.821 154.605 18.8668C153.608 18.9187 152.865 19.1088 151.998 19.2996C150.418 19.65 148.669 19.9026 146.984 20.1911C146.66 20.2466 146.294 20.2768 145.993 20.3437C144.957 20.5839 143.994 20.8731 142.905 21.0797C141.818 21.2862 140.558 21.3829 139.479 21.5956C138.552 21.778 137.751 22.0543 136.889 22.2824C136.669 22.3393 136.416 22.3926 136.173 22.4329C133.842 22.836 131.511 23.2353 129.178 23.6356C129.067 23.653 128.863 23.6429 128.822 23.6651C127.535 24.3178 125.209 24.4562 123.544 24.9286C122.871 25.1204 122.02 25.3791 121.329 25.399C119.039 25.4712 117.863 26.1217 116.162 26.491C114.871 26.7694 113.467 26.9833 112.168 27.2561C111.271 27.4423 110.481 27.6933 109.615 27.8995C107.655 28.3624 105.694 28.823 103.711 29.2754C103.248 29.3826 102.691 29.4424 102.238 29.5519C101.052 29.8446 99.9068 30.1596 98.7229 30.4522C96.6511 30.9617 94.5588 31.4598 92.4767 31.9639C90.3653 32.4764 88.2033 32.9704 86.1655 33.5118C83.7756 34.1431 81.541 34.844 79.1103 35.4552C78.1053 35.7092 77.0677 35.9565 76.0527 36.2081C75.1698 36.4278 74.4789 36.6653 73.7795 36.928C73.3425 37.0953 72.6842 37.2071 72.1319 37.3523C71.4501 37.5317 70.7884 37.7165 70.1267 37.9006C68.791 38.2703 67.445 38.6347 66.1321 39.0127C65.3707 39.2325 64.6701 39.4738 63.929 39.7021C62.4856 40.1396 61.022 40.5725 59.5786 41.0131C58.4962 41.3448 57.4666 41.6888 56.3941 42.0205C54.471 42.6163 52.4974 43.1974 50.6147 43.8063C49.5649 44.1456 48.6791 44.5317 47.6696 44.881C44.8699 45.853 41.9369 46.792 39.2629 47.7929C36.147 48.9623 32.8081 50.0908 30.3129 51.4025C29.9276 51.6074 29.1821 51.757 28.7445 51.9566C27.4826 52.5346 26.2835 53.1271 25.0618 53.7151C24.9434 53.7714 24.8852 53.8386 24.7466 53.8864C22.6076 54.6561 21.1494 55.5352 19.5462 56.3937C17.6978 57.3899 16.2789 58.4393 14.4798 59.4288C12.868 60.3124 12.1952 61.2213 11.0229 62.1113C10.1335 62.7873 9.53103 63.4925 9.04186 64.1839C8.30554 65.2415 7.71324 66.3021 7.18265 67.3575C6.50427 68.6942 6.02898 70.0258 6.15227 71.329C6.25231 72.3527 6.08585 73.4001 6.38811 74.4035C6.65132 75.2864 7.3415 76.1322 7.96954 76.9757C8.44439 77.61 9.12093 78.2147 9.72615 78.8301C10.6991 79.8081 12.417 80.6273 14.2352 81.4207C15.9086 82.1551 17.6896 82.8623 19.5631 83.5381C20.7076 83.9526 22.0624 84.3146 23.4383 84.6558C25.2798 85.1165 27.1289 85.5804 29.1496 85.9649C31.6617 86.4416 34.3649 86.8351 36.9884 87.266C37.1737 87.2966 37.379 87.3312 37.5846 87.3258C39.6168 87.2559 40.9241 87.6559 42.5948 87.8152C44.7368 88.0206 46.8602 88.2465 48.9806 88.4635C49.3823 88.5057 49.8522 88.5274 50.1419 88.607C50.9582 88.8321 52.0508 88.855 53.1451 88.9085C54.9334 88.9993 56.6344 89.1685 58.4136 89.2722C61.9717 89.4765 65.5698 89.6426 69.1279 89.8469C70.6631 89.9342 72.0989 90.1071 73.6532 90.1808C75.2471 90.2538 76.9184 90.2491 78.5594 90.278C80.1634 90.3096 81.7552 90.346 83.3565 90.3748C85.2531 90.4062 87.1617 90.4313 89.0583 90.4634C92.4567 90.5187 95.8338 90.5917 99.2411 90.628C100.546 90.6412 101.925 90.551 103.261 90.5367C106.062 90.5047 108.844 90.4894 111.635 90.4741C113.693 90.4628 115.733 90.4774 117.8 90.4501C119.552 90.4264 121.341 90.3501 123.111 90.3034C125.219 90.2509 127.317 90.2075 129.422 90.1522C130.584 90.1225 131.755 90.0921 132.922 90.0237C134.993 89.9042 137.047 89.7798 139.066 89.8251C140.005 89.8464 141.137 89.6519 142.095 89.6596C144.878 89.6756 147.838 89.2104 150.54 89.3964C150.672 89.4058 150.863 89.3754 151.026 89.3633C152.185 89.2772 153.34 89.1821 154.489 89.1089C155.881 89.0215 157.273 88.9494 158.675 88.8705C162.443 88.6654 166.223 88.4602 169.994 88.2557C171.02 88.2008 172.047 88.1689 173.073 88.0988C177.987 87.7648 182.9 87.4186 187.804 87.0854C189.378 86.9776 190.945 86.9239 192.518 86.8039C198.719 86.3275 204.919 85.8413 211.118 85.3489C213.412 85.1654 215.692 84.9644 217.975 84.7633C221.25 84.4761 224.517 84.1826 227.791 83.8825C230.407 83.6444 233.034 83.3923 235.649 83.1473C238.387 82.8932 241.134 82.6453 243.872 82.382C246.982 82.081 250.105 81.7768 253.207 81.4611C256.571 81.1199 259.936 80.7594 263.299 80.4089C266.003 80.1289 268.722 79.8701 271.416 79.5725C274.221 79.2598 277.069 78.9668 279.798 78.5532C281.657 78.2732 283.516 78.1535 285.368 77.9315C287.553 77.6679 289.73 77.4026 291.918 77.1418C294.256 76.8646 296.604 76.5988 298.954 76.3138C300.898 76.0781 302.831 75.834 304.764 75.58C306.836 75.3094 308.889 75.0212 310.964 74.7413C312.613 74.5184 314.272 74.2939 315.921 74.0709C317.983 73.7919 320.059 73.5212 322.111 73.2299C324.527 72.8871 326.922 72.5229 329.317 72.1655C332.632 71.6708 335.958 71.1784 339.262 70.6684C342.262 70.2063 345.264 69.7403 348.221 69.2407C351.13 68.7509 353.994 68.217 356.869 67.7014C358.716 67.3688 360.551 67.0277 362.408 66.7012C364.306 66.3678 366.246 66.0726 368.101 65.7118C370.439 65.2545 372.694 64.7474 374.991 64.2648C375.645 64.1281 376.32 64.0089 376.975 63.8752C379.858 63.274 382.738 62.6699 385.63 62.071C386.003 61.9927 386.46 61.9618 386.832 61.8805C389.167 61.3675 391.491 60.8454 393.818 60.3231C397.148 59.5721 400.512 58.8348 403.799 58.0618C406.205 57.496 408.554 56.8999 410.864 56.2908C413.386 55.6252 415.833 54.9238 418.322 54.2415C420.3 53.6984 422.35 53.1844 424.244 52.6153C427.761 51.5616 431.187 50.4726 434.683 49.4075C439.842 47.8349 444.248 46.0662 448.715 44.316C450.001 43.8144 451.482 43.3266 452.398 42.7804C454.538 41.5043 457.913 40.442 459.815 39.1178C461.786 37.7538 463.699 36.4004 465.239 35.0026C466.568 33.7961 467.162 32.5973 468.103 31.395C468.522 30.8667 468.44 30.3319 468.544 29.7986C468.629 29.3365 468.735 28.872 468.699 28.4158C468.602 27.0577 468.597 25.6929 467.285 24.4598C466.617 23.839 466.122 23.1933 465.565 22.5582C464.541 21.3825 462.782 20.3526 460.838 19.361C459.707 18.7877 458.654 18.1896 457.279 17.6851C455.531 17.0473 453.533 16.4789 451.554 15.9112C450.258 15.5395 448.881 15.1913 447.418 14.8849C444.603 14.3021 441.767 13.72 438.792 13.205C436.362 12.785 433.753 12.4411 431.145 12.1095C428.702 11.797 426.192 11.5247 423.648 11.2734C420.687 10.9802 417.734 10.678 414.654 10.4726C409.272 10.1182 403.805 9.82906 398.353 9.52342C395.88 9.38323 393.376 9.26451 390.862 9.15263C388.135 9.03136 385.408 8.91619 382.65 8.82859C380.423 8.75814 378.141 8.74246 375.893 8.68587C374.813 8.65971 373.798 8.56203 372.706 8.54898C369.911 8.51467 367.021 8.58478 364.314 8.47119C361.291 8.34355 358.115 8.45708 355.074 8.36218C351.429 8.24935 347.649 8.27304 343.908 8.27073C341.217 8.26627 338.497 8.3176 335.787 8.33979C334.322 8.35142 332.873 8.3427 331.407 8.36672C329.422 8.4009 327.426 8.45507 325.442 8.50526C323.753 8.54582 322.064 8.59247 320.373 8.63626C318.919 8.67539 317.453 8.71848 315.997 8.75093C315.286 8.76625 314.58 8.74287 313.867 8.76448C312.951 8.79198 312.03 8.85132 311.114 8.88799C310.941 8.89397 310.784 8.84585 310.601 8.85029C309.991 8.85502 309.388 8.8554 308.767 8.88318C307.842 8.92668 306.909 8.99304 305.984 9.04264C305.771 9.05233 305.545 8.99638 305.353 9.02062C303.127 9.31784 300.979 9.16963 298.777 9.34868C298.461 9.37524 297.952 9.3755 297.837 9.31815C297.301 9.04926 296.588 9.24097 295.869 9.33884C295.426 9.40012 294.848 9.47455 294.501 9.43675C292.921 9.26842 291.152 9.5065 289.491 9.52348C287.148 9.54367 284.766 9.61351 282.403 9.66663C281.906 9.67836 281.389 9.71064 280.879 9.73244C281.218 9.57551 281.606 9.42407 281.872 9.25645C281.989 9.18489 281.972 9.04754 281.828 9.01376C281.683 8.98092 281.196 9.01099 281.035 9.06355C279.916 9.4425 279.09 9.26793 278.047 9.19763C277.023 9.12892 275.774 9.22794 274.635 9.25595C274.013 9.27076 273.395 9.30141 272.773 9.31622C272.58 9.32139 272.415 9.28926 272.23 9.27767C272.35 9.19678 272.402 9.07641 272.594 9.03996C273.362 8.88865 274.164 8.69338 274.957 8.64131C278.399 8.40687 281.862 8.15248 285.267 8.03179C288.94 7.90042 292.591 7.76079 296.297 7.51663C298.948 7.34172 301.598 7.35845 304.245 7.28117C304.641 7.27086 305.068 7.23909 305.463 7.19064C308.288 6.85185 311.004 6.93571 313.767 6.80612C315.914 6.70624 318.059 6.62256 320.196 6.55488C322.768 6.47318 325.335 6.42408 327.91 6.35212C328.804 6.32703 329.727 6.25454 330.614 6.2361C333.668 6.16303 336.731 6.08312 339.767 6.04357C342.466 6.00914 345.145 6.02368 347.836 6.01288C351.128 5.99713 354.428 5.97244 357.721 5.96355C360.399 5.95596 363.08 5.952 365.742 5.97392C368.494 5.9961 371.24 6.03714 373.973 6.09511C377.494 6.17041 381.006 6.25178 384.496 6.35692C388.449 6.47521 392.399 6.59674 396.293 6.76997C400.532 6.95812 404.705 7.20786 408.907 7.43327C410.524 7.52066 412.129 7.60592 413.714 7.71171C414.992 7.79603 416.252 7.8969 417.501 8.00249C420.553 8.2536 423.625 8.49714 426.646 8.77276C428.676 8.9582 430.626 9.19395 432.595 9.41221C434.472 9.62201 436.407 9.80222 438.185 10.0661C440.056 10.3392 441.748 10.7044 443.551 11.0109C444.084 11.103 444.809 11.1089 445.313 11.2101C446.84 11.5087 448.276 11.8456 449.791 12.1512C450.461 12.2868 451.32 12.3524 451.932 12.5076C455.231 13.354 458.79 14.1091 461.409 15.1915C462.516 15.647 463.953 16.0152 464.989 16.489C466.213 17.0461 467.176 17.6693 468.249 18.266C469.068 18.7207 469.871 19.1835 470.7 19.6344C471.636 20.144 472.319 20.6908 472.539 21.3226C472.601 21.4942 473.086 21.6182 473.257 21.7817C474.127 22.5758 475.03 23.3583 475.16 24.2611C475.229 24.7249 475.741 25.1457 475.911 25.6019C476.007 25.8591 475.758 26.148 475.751 26.4159C475.738 26.8888 475.836 27.3534 475.811 27.8272C475.786 28.442 475.922 29.0547 474.815 29.6909C474.688 29.7663 474.642 29.88 474.728 29.9464C475.369 30.4519 474.788 31.0084 474.31 31.5564C473.218 32.8143 472.26 34.0776 470.955 35.3292C470.143 36.1097 468.852 36.873 467.653 37.6348C465.742 38.8502 463.722 40.0447 461.064 41.1669C459.599 41.7854 458.097 42.4195 457.005 43.1174C456.335 43.5419 455.401 43.9538 454.413 44.3321C452.549 45.053 450.539 45.7402 448.642 46.4505C448.213 46.6119 448.032 46.833 447.602 46.9936C444.977 47.9817 442.364 48.975 439.636 49.9425C437.618 50.6556 435.578 51.3826 433.279 51.991C432.416 52.2191 431.837 52.4629 431.118 52.6834C427.391 53.8346 423.363 54.8864 419.563 56.0186C416.697 56.8698 413.631 57.6357 410.587 58.4097C409.019 58.809 407.526 59.241 405.915 59.6159C404.809 59.8743 403.17 59.8767 402.68 60.4287C399.49 60.9839 396.92 61.8484 393.878 62.4859C389.799 63.3431 385.868 64.2958 381.81 65.1606C379.734 65.6015 377.492 65.9475 375.321 66.3356C374.999 66.394 374.561 66.4105 374.343 66.4903C371.275 67.5864 367.065 67.9562 363.492 68.7282C361.961 69.0588 360.43 69.3964 358.826 69.6757C357.171 69.9658 355.43 70.1803 353.743 70.4436C352.802 70.5925 351.907 70.7847 350.969 70.9395C349.988 71.1035 348.981 71.3201 347.995 71.3782C346.705 71.4549 345.827 71.7593 344.745 71.9369C343.219 72.1891 341.675 72.4203 340.139 72.6633C339.261 72.8013 338.391 72.9411 337.524 73.0845C336.04 73.3297 334.566 73.5779 333.079 73.8271C333.05 73.8324 333.031 73.8529 332.989 73.8591C331.433 74.056 329.874 74.2539 328.315 74.4487C328.081 74.4783 327.775 74.4635 327.594 74.5084C324.86 75.1867 321.681 75.3664 318.741 75.8271C314.881 76.435 310.914 76.9437 306.969 77.4731C304.057 77.8627 301.12 78.2136 298.195 78.5851C295.92 78.8737 293.663 79.1894 291.387 79.4659C289.301 79.7183 287.192 79.9188 285.108 80.168C282.585 80.4689 280.086 80.7995 277.566 81.1002C276.017 81.2844 274.445 81.4296 272.885 81.6053C270.374 81.8871 267.873 82.1856 265.362 82.4635C264.186 82.5953 262.988 82.6874 261.802 82.807C258.155 83.1755 254.508 83.5509 250.859 83.9226C248.975 84.1132 247.089 84.3163 245.204 84.4909C241.898 84.7964 238.581 85.0814 235.267 85.3875C233.34 85.5652 231.415 85.7743 229.489 85.965C229.225 85.9907 228.758 86.0193 228.706 85.9879C228.163 85.5817 227.862 86.0071 227.385 86.093C226.671 86.2212 225.859 86.2946 225.087 86.3704C223.659 86.511 222.231 86.6456 220.789 86.7658C217.36 87.0521 213.931 87.3255 210.502 87.6088C208.169 87.8014 205.847 88.0024 203.512 88.2044C201.881 88.3448 200.248 88.5099 198.604 88.6413C196.392 88.8188 194.181 88.974 191.968 89.1385C190.555 89.2436 189.154 89.5109 187.722 89.3945C187.291 89.3599 186.589 89.5385 186.018 89.5771C181.33 89.9073 176.629 90.2407 171.936 90.549C168.648 90.7652 165.355 90.9564 162.064 91.1321C158.07 91.344 154.086 91.533 150.111 91.719C146.737 91.8787 143.359 92.0195 139.985 92.1693C138.216 92.2479 136.371 92.4196 134.697 92.3931C131.656 92.3418 128.485 92.6688 125.433 92.5969C123.044 92.5386 120.417 92.75 117.904 92.8235C116.5 92.865 115.104 92.8616 113.709 92.8872C112.039 92.9163 110.35 92.9607 108.689 92.98C106.845 93.0006 105.011 93.0083 103.188 93.0113C100.76 93.0194 98.3074 93.0632 95.9309 93.01C93.1645 92.9483 90.2871 93.0711 87.5366 92.9393C85.8706 92.8617 84.0775 92.8624 82.3804 92.7626C81.5816 92.7148 80.5418 92.8802 79.6949 92.8581C76.0094 92.7705 72.3352 92.6629 68.6898 92.5379C67.5865 92.5004 66.6009 92.35 65.5163 92.2927C62.0606 92.1022 58.5264 91.9689 55.118 91.7382C52.6632 91.5713 50.3654 91.2864 47.9862 91.0541C45.6196 90.8241 43.1928 90.6268 40.8738 90.3625C38.4325 90.0844 36.0796 89.7468 33.7078 89.4259C32.4733 89.2595 31.292 89.0708 30.0794 88.8997C29.0319 88.7508 27.8629 88.6493 26.9341 88.451C24.9137 88.0289 23.0022 87.5574 21.0396 87.1057C20.1928 86.9105 19.3753 86.707 18.4993 86.5239C16.4061 86.085 14.9735 85.4423 13.2579 84.8841C10.6934 84.0498 8.83341 83.0427 6.91241 82.0532C5.60962 81.3824 4.32764 80.6848 3.53059 79.9228C2.52922 78.9684 2.0121 77.9373 1.32301 76.9352C0.233447 75.3422 0.2613 73.6417 0.368874 71.9475C0.441795 70.7369 1.17717 69.4871 1.55651 68.2569C2.09048 66.5156 3.55926 64.7708 5.25663 63.0334C6.35367 61.9077 8.04452 60.8006 9.41973 59.6817C10.0217 59.1872 10.452 58.6833 11.0865 58.1925C11.4883 57.8861 12.0942 57.5928 12.6481 57.2996C14.2497 56.4573 15.8438 55.6117 17.4978 54.7747C19.1929 53.9186 20.9283 53.0725 22.6862 52.2308C23.8259 51.6841 25.0181 51.145 26.243 50.6134C26.979 50.2951 27.8179 49.9999 28.5965 49.6899C30.5295 48.9172 32.3594 48.1208 34.3853 47.3688C36.8826 46.4438 39.5432 45.5572 42.1208 44.6485C44.4088 43.8394 46.6263 43.0111 48.9776 42.2226C50.9758 41.5523 53.1329 40.9262 55.2168 40.2801C57.2691 39.6434 59.3035 38.998 61.3963 38.3766C63.221 37.8387 65.1293 37.3321 66.9967 36.8026C69.4646 36.1035 71.8999 35.3999 74.368 34.7039C75.2811 34.4475 76.2146 34.2019 77.1479 33.9532C79.3688 33.3599 81.5672 32.7628 83.8062 32.1841C85.7154 31.6928 87.6984 31.2336 89.618 30.7515C92.4912 30.0284 95.3438 29.2907 98.227 28.5669C99.1024 28.3471 100.049 28.1572 100.935 27.9404C101.478 27.8058 101.868 27.6978 101.205 27.5081C100.585 27.3313 100.323 27.0328 99.9118 26.7838C99.858 26.7533 99.9346 26.6595 99.9642 26.6573C100.157 26.6392 100.453 26.611 100.524 26.6402C100.992 26.8099 101.522 26.972 101.809 27.1805C102.172 27.4493 102.655 27.5329 103.561 27.3299C105.251 26.9529 106.89 26.5476 108.57 26.1684C109.809 25.887 111.089 25.6256 112.346 25.3559C113.434 25.1241 114.511 24.874 115.63 24.6651C116.347 24.5299 116.186 24.4161 115.896 24.3243C115.472 24.1858 114.945 24.0863 114.469 23.9616C114.376 23.9371 114.353 23.8821 114.299 23.8417C114.482 23.8319 114.725 23.7916 114.828 23.8123C115.25 23.9005 115.784 23.9741 116.005 24.1086C116.46 24.3919 117.198 24.2773 117.862 24.1398C120.895 23.5152 123.876 22.8622 126.919 22.243C130.577 21.496 134.287 20.7827 137.945 20.0388C139.497 19.7227 140.974 19.3547 142.503 19.0272C142.947 18.9314 143.496 18.912 143.97 18.827C148.058 18.0918 152.112 17.3345 156.208 16.6116C158.6 16.1879 161.067 15.8191 163.489 15.4122C165.58 15.0622 167.637 14.6825 169.738 14.3469C172.921 13.8398 176.124 13.3688 179.307 12.8709C181.751 12.4877 184.165 12.0692 186.609 11.6959C189.046 11.3255 191.523 10.9935 193.98 10.6445C194.758 10.5331 195.538 10.4184 196.305 10.2986C198.761 9.9206 201.214 9.53059 203.681 9.17094C204.633 9.03427 205.66 8.98629 206.62 8.86432C208.472 8.6324 210.302 8.36456 212.154 8.13263C213.723 7.93403 215.303 7.76292 216.882 7.57655C218.037 7.44008 219.235 7.34187 220.323 7.15371C220.949 7.04433 221.393 6.78454 221.923 6.59421C222.193 6.49601 222.483 6.40474 222.763 6.30886C222.81 6.39347 222.783 6.4958 222.92 6.55454C223.075 6.62192 223.408 6.71364 223.6 6.69016C226.12 6.3894 228.629 6.06115 231.152 5.76325C232.366 5.62008 233.604 5.53419 234.83 5.4086C236.371 5.24958 237.901 5.08214 239.43 4.91565C242.388 4.59459 245.335 4.25901 248.304 3.96011C249.774 3.81252 251.268 3.74586 252.739 3.62039C256.745 3.27888 260.752 2.91811 264.749 2.58267C265.773 2.49731 266.802 2.48671 267.827 2.42348C271.067 2.21402 274.306 1.98854 277.555 1.77835C281.262 1.53724 284.927 1.44094 288.607 1.30902C290.286 1.25013 292.013 1.1439 293.703 1.10945C295.873 1.06455 298.035 1.09305 300.217 0.962185C302.249 0.83947 303.309 1.38961 305.258 1.25693C305.372 1.24849 305.592 1.35858 305.563 1.37299C305.403 1.44461 305.173 1.54064 304.97 1.55188C304.108 1.60681 303.242 1.64285 302.378 1.67566C300.314 1.75709 298.259 1.81872 296.193 1.91254C293.277 2.0413 290.345 2.11758 287.444 2.36157C285.741 2.50353 284.013 2.42136 282.242 2.82648C281.327 3.03629 279.888 3.02989 278.53 3.1347ZM359.649 7.25741C359.325 7.30683 358.991 7.36003 358.669 7.41231C358.659 7.41305 358.701 7.45436 358.712 7.4788C359.065 7.402 359.418 7.32521 359.891 7.23942C360.093 7.2091 360.297 7.17784 360.499 7.14752C360.465 7.11863 360.434 7.08956 360.402 7.06048C360.19 7.12299 359.98 7.18609 359.649 7.25741ZM412.671 57.0749C412.595 57.1312 412.527 57.1891 412.448 57.2455C412.64 57.219 412.862 57.2025 413.024 57.1621C414.29 56.8442 415.556 56.5172 416.823 56.197C417.043 56.1393 417.286 56.0898 417.506 56.0298C417.515 56.026 417.378 55.932 417.327 55.9389C417.034 55.9737 416.711 56.007 416.449 56.067C416.045 56.1637 415.695 56.284 415.313 56.3844C414.48 56.6041 413.636 56.8147 412.671 57.0749ZM387.882 7.2789C387.602 7.36868 387.322 7.46227 387.042 7.55205C387.327 7.56221 387.635 7.60905 387.889 7.57412C388.354 7.51118 388.787 7.40392 389.231 7.31422C389.127 7.28361 389.052 7.23248 388.928 7.22945C388.675 7.22606 388.401 7.24949 387.882 7.2789ZM368.107 7.04763C367.786 7.16266 367.458 7.27823 367.157 7.39789C367.138 7.40546 367.399 7.50862 367.5 7.49804C367.784 7.46776 368.229 7.40325 368.275 7.34617C368.393 7.23018 368.262 7.11425 368.107 7.04763ZM435.653 11.9505C435.958 11.9592 436.266 11.9677 436.572 11.9764C436.464 11.865 436.415 11.743 436.236 11.646C436.144 11.5961 435.856 11.5892 435.651 11.5638C435.647 11.6675 435.653 11.7713 435.653 11.9505ZM469.927 21.1076C469.922 21.1808 469.906 21.251 469.9 21.3234C470.252 21.2689 470.616 21.2166 470.97 21.1627C470.703 21.1411 470.439 21.1141 469.927 21.1076ZM287.239 79.1323C287.342 79.1621 287.446 79.192 287.539 79.2233C287.575 79.1012 287.639 78.9769 287.633 78.8579C287.632 78.8388 287.366 78.8363 287.232 78.8279C287.236 78.9027 287.24 78.9813 287.239 79.1323ZM106.204 27.3916C106.461 27.423 106.706 27.4546 106.972 27.4762C106.992 27.4778 107.15 27.381 107.239 27.3307C106.934 27.3342 106.627 27.3379 106.204 27.3916ZM330.781 6.86568C331.027 6.87268 331.283 6.8881 331.538 6.87224C331.597 6.86783 331.673 6.76793 331.732 6.70994C331.459 6.74558 331.176 6.78272 330.781 6.86568ZM376.62 7.81437C376.513 7.8913 376.413 7.96462 376.306 8.04231C376.598 7.99528 376.903 7.94428 377.195 7.89726C377.092 7.8613 376.978 7.82837 376.62 7.81437ZM355.253 7.58427C355.063 7.63979 354.883 7.69687 354.692 7.75239C354.837 7.76691 355.072 7.79924 355.091 7.79167C355.251 7.72004 355.368 7.64238 355.253 7.58427ZM424.69 9.12891C424.503 9.07994 424.327 9.03023 424.141 8.98126C424.081 9.02019 423.944 9.09321 423.964 9.09479C424.149 9.12851 424.364 9.1501 424.69 9.12891ZM67.3859 37.5888C67.6817 37.6012 67.9703 37.6173 68.2662 37.6306C68.294 37.5963 68.3318 37.5621 68.362 37.5254C68.0771 37.5312 67.7921 37.5363 67.3859 37.5888ZM413.604 56.2502C413.769 56.2632 413.943 56.2725 414.105 56.2857C414.144 56.2231 414.179 56.1576 414.218 56.095C414.056 56.1285 413.895 56.1658 413.604 56.2502ZM368.024 7.7709C368.16 7.81133 368.294 7.85119 368.43 7.89162C368.498 7.86436 368.568 7.83691 368.639 7.81022C368.474 7.78115 368.308 7.75283 368.024 7.7709ZM327.837 6.85783C327.662 6.8333 327.487 6.80877 327.312 6.78348C327.242 6.82314 327.175 6.86337 327.105 6.89998C327.308 6.90018 327.512 6.90419 327.837 6.85783ZM429.567 51.9552C429.773 52.0035 429.971 52.0485 430.177 52.096C430.226 52.0763 430.306 52.042 430.306 52.042C430.1 51.9945 429.894 51.9531 429.567 51.9552ZM360.671 7.86484C360.577 7.82128 360.492 7.78004 360.398 7.73725C360.289 7.77984 360.18 7.82244 360.071 7.86503C360.223 7.88206 360.387 7.89511 360.671 7.86484ZM211.581 8.83256C211.636 8.89127 211.689 8.95015 211.745 9.00885C211.846 8.99217 211.946 8.97549 212.047 8.95804C211.932 8.90069 211.817 8.84335 211.581 8.83256Z" fill="#BDFF00"/>
</svg>
