<svg width="344" height="198" viewBox="0 0 344 198" fill="none" xmlns="http://www.w3.org/2000/svg">
<path d="M195.509 4.35232C193.961 4.55062 192.509 4.47521 191.029 4.89345C189.475 5.33258 187.713 5.03744 186.046 5.12279C185.216 5.1661 184.394 5.32922 183.57 5.4469C182.979 5.53397 182.391 5.6682 181.798 5.72626C179.705 5.92867 177.608 6.08029 175.524 6.31128C174.718 6.39874 173.934 6.65603 173.125 6.79471C172.886 6.83844 172.628 6.75031 172.375 6.72022C172.457 6.52026 172.576 6.33445 172.604 6.1305C172.627 6.02345 172.476 5.7794 172.438 5.78169C172.199 5.82542 171.845 5.83974 171.748 6.00237C171.171 6.98862 170.14 6.99868 169.232 7.19616C167.615 7.54991 165.97 7.76135 164.34 8.06305C163.264 8.26352 162.209 8.55926 161.132 8.75248C159.78 9.00079 158.395 9.12899 157.053 9.42039C155.34 9.78728 153.651 10.2948 151.938 10.6671C150.901 10.8961 149.82 10.9548 148.784 11.182C147.564 11.4514 146.366 11.8014 145.16 12.1446C144.495 12.3273 143.861 12.6338 143.192 12.7493C142.667 12.8414 142.164 12.8047 141.99 13.4603C141.974 13.536 141.748 13.5716 141.608 13.5875C140.475 13.724 139.35 13.8455 138.217 13.982C138.194 13.9834 138.175 14.021 138.155 14.0441C137.165 15.3179 135.66 14.8103 134.393 15.128C133.574 15.3347 132.79 15.6959 131.983 15.9546C131.14 16.2229 130.26 16.3822 129.427 16.6954C127.92 17.2574 126.461 17.9604 124.934 18.4726C124.043 18.7729 123.332 19.7455 122.201 19.2971C122.109 19.259 121.972 19.3037 121.866 19.3485C120.587 19.9202 119.336 20.5413 118.031 21.0491C116.954 21.4664 115.816 21.7289 114.724 22.0962C114.076 22.3143 113.455 22.6072 112.816 22.8484C111.584 23.3117 110.454 24.1057 109.044 24.0806C108.778 24.0732 108.349 24.2724 108.276 24.4791C107.995 25.2669 107.377 25.2737 106.75 25.2682C106.026 25.2595 105.507 25.6118 104.896 25.9497C103.785 26.5714 102.536 26.939 101.339 27.4001C101.109 27.4889 100.845 27.5123 100.633 27.6309C99.9058 28.0633 99.2381 28.6215 98.4669 28.9673C97.6974 29.313 96.787 29.3759 96.0241 29.7376C95.3686 30.0472 94.8186 30.5964 94.2166 31.023C94.0629 31.1289 93.8849 31.2218 93.7119 31.2852C92.0568 31.9327 90.401 32.5712 88.7435 33.2116C88.6647 33.2383 88.5138 33.1874 88.4868 33.2346C87.6298 34.6114 85.943 34.6323 84.7854 35.5319C84.317 35.8975 83.7276 36.3981 83.2238 36.3541C81.5545 36.2227 80.7789 37.6092 79.5815 38.2598C78.6718 38.7489 77.671 39.0705 76.7549 39.5454C76.1219 39.8682 75.5766 40.3588 74.9689 40.7329C73.5933 41.5711 72.2173 42.4039 70.8235 43.214C70.4985 43.4069 70.098 43.4751 69.7808 43.6748C68.95 44.2119 68.1522 44.8072 67.3232 45.3442C65.8721 46.2781 64.4044 47.182 62.9451 48.1018C61.4654 49.0375 59.9461 49.9227 58.5242 50.9368C56.8561 52.1171 55.311 53.4831 53.6104 54.6108C52.9074 55.08 52.1796 55.5288 51.469 55.9912C50.8509 56.3951 50.376 56.8668 49.8982 57.397C49.6001 57.7359 49.1323 57.9138 48.7467 58.1851C48.2708 58.5202 47.8103 58.8708 47.3496 59.2195C46.4196 59.9194 45.4813 60.6052 44.5691 61.3277C44.0401 61.748 43.5586 62.2274 43.0457 62.6704C42.0456 63.5167 41.0302 64.3493 40.0307 65.2028C39.2813 65.8461 38.5722 66.5252 37.8301 67.1699C36.4994 68.3278 35.1299 69.4444 33.8306 70.6387C33.1062 71.3042 32.5081 72.1022 31.8145 72.7968C29.8913 74.7305 27.866 76.5685 26.0388 78.5875C23.91 80.9474 21.6123 83.1809 19.9575 85.9601C19.7024 86.3947 19.1757 86.6509 18.8814 87.0661C18.0332 88.2693 17.2329 89.5151 16.4155 90.7474C16.3362 90.8652 16.3025 91.0166 16.2072 91.1117C14.7414 92.6532 13.7894 94.5441 12.7282 96.367C11.5057 98.4839 10.6051 100.783 9.41771 102.891C8.35368 104.772 7.98134 106.837 7.24025 108.792C6.67818 110.276 6.3303 111.868 6.06366 113.442C5.66454 115.851 5.37142 118.287 5.12282 120.718C4.80332 123.796 4.63202 126.89 4.89577 129.994C5.10531 132.434 5.12261 134.894 5.47768 137.312C5.7881 139.439 6.40661 141.535 6.97925 143.617C7.41175 145.183 7.98819 146.706 8.51376 148.244C9.35715 150.69 10.7256 152.859 12.164 154.979C13.4886 156.941 14.8884 158.852 16.3518 160.701C17.2459 161.835 18.2873 162.872 19.3414 163.862C20.7527 165.197 22.1701 166.541 23.7026 167.719C25.6077 169.181 27.6418 170.47 29.6225 171.838C29.7624 171.935 29.9175 172.044 30.0675 172.059C31.5481 172.161 32.5597 173.282 33.8057 173.88C35.4034 174.65 36.9902 175.466 38.5735 176.26C38.8736 176.413 39.221 176.527 39.444 176.754C40.0724 177.395 40.8764 177.594 41.6858 177.865C43.0089 178.316 44.2785 178.942 45.5966 179.423C48.2323 180.377 50.8923 181.246 53.528 182.2C54.6651 182.61 55.7407 183.209 56.8899 183.589C58.0682 183.973 59.2928 184.182 60.4997 184.468C61.6798 184.754 62.8516 185.051 64.0294 185.331C65.424 185.656 66.8266 185.967 68.2213 186.294C70.7201 186.874 73.2057 187.493 75.7084 188.029C76.6671 188.233 77.6659 188.201 78.6435 188.344C80.6925 188.638 82.7299 188.969 84.7745 189.301C86.2817 189.546 87.7788 189.85 89.2904 190.059C90.5718 190.234 91.873 190.289 93.1649 190.413C94.7031 190.567 96.2356 190.741 97.7714 190.888C98.619 190.971 99.4737 191.054 100.32 191.046C101.823 191.036 103.312 191.013 104.798 191.386C105.489 191.561 106.293 191.25 106.997 191.394C109.039 191.8 111.147 191.088 113.153 191.886C113.251 191.926 113.387 191.879 113.505 191.872C114.343 191.821 115.177 191.748 116.01 191.726C117.018 191.703 118.029 191.716 119.046 191.714C121.782 191.726 124.526 191.739 127.263 191.752C128.008 191.758 128.757 191.818 129.499 191.787C133.058 191.645 136.614 191.473 140.165 191.331C141.304 191.284 142.446 191.363 143.583 191.287C148.065 190.977 152.546 190.643 157.026 190.295C158.683 190.163 160.328 189.988 161.974 189.813C164.337 189.565 166.693 189.301 169.054 189.022C170.939 188.803 172.832 188.553 174.716 188.318C176.69 188.077 178.671 187.852 180.643 187.59C182.883 187.288 185.132 186.979 187.364 186.641C189.785 186.276 192.204 185.866 194.623 185.48C196.569 185.174 198.527 184.919 200.462 184.57C202.477 184.199 204.526 183.881 206.472 183.261C207.798 182.843 209.144 182.805 210.473 182.524C212.04 182.187 213.601 181.846 215.17 181.517C216.847 181.169 218.533 180.849 220.218 180.484C221.611 180.182 222.996 179.859 224.379 179.512C225.863 179.145 227.329 178.733 228.813 178.344C229.992 178.033 231.179 177.72 232.358 177.41C233.833 177.021 235.318 176.653 236.784 176.234C238.51 175.741 240.217 175.194 241.926 174.663C244.29 173.929 246.663 173.201 249.017 172.429C251.155 171.73 253.294 171.022 255.396 170.229C257.463 169.452 259.492 168.565 261.531 167.723C262.84 167.178 264.141 166.613 265.458 166.084C266.806 165.544 268.189 165.101 269.5 164.491C271.153 163.716 272.739 162.812 274.359 161.972C274.82 161.734 275.3 161.541 275.762 161.311C277.795 160.266 279.826 159.215 281.867 158.178C282.13 158.042 282.461 158.029 282.723 157.885C284.366 156.978 286.001 156.047 287.637 155.117C289.979 153.777 292.346 152.474 294.653 151.076C296.342 150.053 297.985 148.95 299.597 147.812C301.357 146.568 303.059 145.228 304.792 143.94C306.17 142.914 307.604 141.967 308.918 140.868C311.356 138.836 313.722 136.707 316.144 134.645C319.717 131.599 322.712 127.989 325.754 124.431C326.63 123.412 327.65 122.452 328.25 121.279C329.649 118.537 331.982 116.465 333.2 113.578C334.464 110.606 335.686 107.651 336.629 104.541C337.442 101.857 337.719 99.0949 338.249 96.3697C338.486 95.1729 338.354 93.8946 338.359 92.6445C338.361 91.5604 338.376 90.4736 338.289 89.3876C338.037 86.1563 337.852 82.921 336.726 79.825C336.154 78.2657 335.705 76.6698 335.212 75.0911C334.305 72.1695 332.878 69.4964 331.322 66.8894C330.416 65.3815 329.564 63.8247 328.489 62.4474C327.123 60.7051 325.582 59.0939 324.056 57.4871C323.056 56.4349 322.001 55.428 320.888 54.5085C318.746 52.7553 316.59 51.0012 314.34 49.3876C312.503 48.0713 310.545 46.9118 308.589 45.7813C306.756 44.718 304.879 43.7412 302.981 42.8094C300.771 41.7235 298.566 40.6173 296.281 39.7237C292.288 38.1728 288.241 36.7654 284.204 35.3209C282.372 34.662 280.521 34.0499 278.663 33.4527C276.647 32.805 274.632 32.1718 272.599 31.5999C270.957 31.1389 269.282 30.8002 267.627 30.3692C266.831 30.1645 266.074 29.7989 265.272 29.6238C263.218 29.1733 261.109 28.9577 259.109 28.3309C256.876 27.6291 254.563 27.4787 252.321 26.8521C249.634 26.1032 246.865 25.66 244.123 25.1605C242.149 24.7944 240.162 24.5568 238.178 24.2515C237.106 24.0855 236.042 23.8735 234.97 23.7366C233.52 23.5555 232.064 23.4202 230.616 23.2772C229.383 23.1502 228.151 23.0377 226.917 22.918C225.857 22.8187 224.788 22.7273 223.724 22.6118C223.205 22.5542 222.685 22.4056 222.165 22.3626C221.497 22.3068 220.829 22.3256 220.163 22.2916C220.036 22.2829 219.915 22.1482 219.781 22.1345C219.335 22.0652 218.893 21.9864 218.442 21.9703C217.769 21.9512 217.094 21.9851 216.422 21.9805C216.268 21.9754 216.094 21.8129 215.957 21.8449C214.365 22.2554 212.77 21.6203 211.179 21.7538C210.951 21.775 210.578 21.7085 210.486 21.5574C210.058 20.8493 209.56 21.2094 209.046 21.3465C208.73 21.4332 208.316 21.5332 208.056 21.3978C206.876 20.7902 205.61 21.1207 204.395 20.9416C202.68 20.68 200.943 20.5309 199.218 20.3446C198.855 20.3067 198.48 20.3149 198.109 20.2993C198.337 19.9721 198.601 19.6644 198.774 19.3023C198.85 19.1482 198.819 18.8204 198.709 18.7214C198.598 18.6243 198.245 18.6313 198.134 18.7346C197.364 19.4848 196.736 18.962 195.961 18.6576C195.202 18.3596 194.299 18.4293 193.468 18.3452C193.014 18.2982 192.565 18.2891 192.111 18.2421C191.97 18.2289 191.845 18.1308 191.708 18.0791C191.785 17.9031 191.807 17.6248 191.943 17.5637C192.486 17.3065 193.048 16.9497 193.623 16.9311C196.114 16.83 198.619 16.6845 201.1 16.8484C203.775 17.0222 206.433 17.1734 209.118 17.0843C211.038 17.02 212.983 17.4097 214.913 17.5761C215.202 17.604 215.511 17.5852 215.794 17.5224C217.82 17.0927 219.822 17.6501 221.83 17.708C223.391 17.7549 224.953 17.8399 226.51 17.9617C228.385 18.1079 230.26 18.3305 232.139 18.5002C232.791 18.5588 233.458 18.5089 234.106 18.5824C236.335 18.8126 238.57 19.0278 240.79 19.3351C242.764 19.61 244.731 19.9984 246.702 20.3281C249.113 20.7258 251.529 21.1031 253.942 21.517C255.905 21.8528 257.869 22.1975 259.824 22.6011C261.844 23.0171 263.863 23.477 265.875 23.9755C268.466 24.6191 271.051 25.2758 273.624 25.986C276.537 26.7884 279.45 27.5983 282.327 28.5231C285.46 29.529 288.553 30.6721 291.663 31.7613C292.86 32.182 294.048 32.596 295.225 33.0562C296.172 33.4248 297.11 33.8303 298.039 34.2455C300.31 35.2438 302.595 36.2267 304.846 37.2791C306.359 37.9866 307.82 38.8029 309.293 39.5803C310.696 40.3255 312.139 41.0081 313.478 41.8684C314.885 42.7627 316.175 43.8519 317.537 44.8163C317.94 45.1051 318.472 45.2147 318.856 45.5211C320.015 46.4306 321.112 47.4185 322.263 48.343C322.773 48.7529 323.411 49.0218 323.88 49.4706C326.412 51.9123 329.122 54.172 331.185 57.0832C332.057 58.3089 333.16 59.3713 333.982 60.631C334.954 62.1131 335.743 63.7174 336.609 65.2733C337.27 66.4591 337.92 67.662 338.588 68.8401C339.342 70.1715 339.916 71.5576 340.16 73.084C340.229 73.4988 340.601 73.8569 340.748 74.267C341.492 76.2639 342.258 78.2377 342.473 80.3944C342.585 81.5026 343.017 82.5676 343.202 83.6713C343.307 84.2935 343.163 84.9454 343.193 85.5794C343.246 86.6984 343.38 87.8126 343.425 88.9322C343.488 90.3858 343.67 91.8559 342.942 93.2175C342.859 93.3793 342.841 93.6428 342.913 93.8115C343.45 95.0941 343.098 96.3363 342.821 97.572C342.187 100.409 341.653 103.277 340.863 106.07C340.371 107.813 339.526 109.451 338.748 111.099C337.51 113.727 336.187 116.291 334.388 118.599C333.396 119.871 332.38 121.176 331.672 122.686C331.237 123.603 330.607 124.456 329.933 125.222C328.663 126.684 327.281 128.048 325.984 129.48C325.691 129.806 325.588 130.306 325.294 130.63C323.501 132.625 321.718 134.634 319.846 136.567C318.462 137.99 317.063 139.444 315.458 140.582C314.856 141.009 314.464 141.51 313.966 141.938C311.387 144.174 308.574 146.135 305.939 148.316C303.951 149.955 301.805 151.365 299.676 152.797C298.58 153.536 297.543 154.363 296.412 155.039C295.635 155.505 294.434 155.294 294.148 156.538C291.883 157.432 290.114 159.141 287.969 160.251C285.093 161.743 282.337 163.482 279.477 164.996C278.014 165.766 276.416 166.29 274.876 166.923C274.648 167.019 274.33 167 274.18 167.161C272.076 169.353 269.039 169.673 266.523 171.031C265.444 171.613 264.367 172.21 263.228 172.66C262.053 173.129 260.805 173.408 259.604 173.809C258.933 174.037 258.303 174.375 257.636 174.618C256.939 174.877 256.229 175.257 255.514 175.265C254.578 175.276 253.975 175.881 253.206 176.16C252.121 176.556 251.019 176.9 249.925 177.273C249.3 177.484 248.681 177.7 248.064 177.925C247.009 178.31 245.961 178.704 244.905 179.098C244.884 179.107 244.873 179.153 244.843 179.162C243.728 179.423 242.612 179.686 241.495 179.942C241.327 179.982 241.101 179.906 240.974 179.989C239.06 181.235 236.753 181.241 234.659 181.944C231.91 182.875 229.07 183.557 226.248 184.29C224.165 184.829 222.059 185.273 219.963 185.767C218.334 186.15 216.721 186.6 215.09 186.955C213.594 187.278 212.074 187.474 210.579 187.79C208.77 188.17 206.982 188.623 205.175 189.003C204.063 189.235 202.93 189.371 201.81 189.582C200.006 189.918 198.213 190.295 196.409 190.622C195.564 190.779 194.699 190.839 193.845 190.966C191.22 191.357 188.596 191.765 185.97 192.164C184.614 192.367 183.259 192.599 181.9 192.764C179.517 193.052 177.123 193.289 174.735 193.577C173.346 193.743 171.962 193.984 170.575 194.182C170.385 194.208 170.047 194.214 170.005 194.133C169.552 193.098 169.388 194.067 169.05 194.208C168.544 194.417 167.958 194.484 167.402 194.561C166.374 194.706 165.345 194.836 164.304 194.931C161.828 195.156 159.351 195.351 156.874 195.57C155.19 195.718 153.514 195.888 151.829 196.058C150.652 196.175 149.477 196.351 148.289 196.445C146.691 196.574 145.091 196.649 143.49 196.747C142.468 196.809 141.477 197.258 140.411 196.793C140.091 196.654 139.6 196.984 139.187 197.001C135.793 197.164 132.391 197.333 128.992 197.444C126.61 197.522 124.221 197.54 121.832 197.522C118.933 197.497 116.036 197.418 113.147 197.334C110.695 197.267 108.237 197.154 105.784 197.063C104.497 197.016 103.167 197.179 101.937 196.896C99.7008 196.372 97.4196 196.728 95.1724 196.155C93.4131 195.701 91.5154 195.855 89.6827 195.697C88.6591 195.61 87.6348 195.418 86.6156 195.294C85.3952 195.143 84.1629 195.025 82.9481 194.851C81.5989 194.656 80.2548 194.432 78.9189 194.199C77.1403 193.897 75.3478 193.677 73.5985 193.237C71.5623 192.725 69.4691 192.636 67.4351 191.961C66.2034 191.557 64.8889 191.322 63.6315 190.861C63.0395 190.642 62.2992 190.897 61.6754 190.732C58.9618 190.038 56.2539 189.298 53.5648 188.52C52.7509 188.285 52.0083 187.799 51.2056 187.52C48.6468 186.612 46.038 185.829 43.5086 184.832C41.6867 184.112 39.9643 183.133 38.1891 182.269C36.4235 181.411 34.6181 180.623 32.8829 179.69C31.0561 178.708 29.2863 177.598 27.5048 176.524C26.5776 175.966 25.6864 175.363 24.7747 174.797C23.9869 174.306 23.1165 173.911 22.4091 173.318C20.8718 172.051 19.4077 170.681 17.9088 169.352C17.262 168.777 16.6356 168.187 15.9691 167.637C14.3761 166.32 13.2403 164.608 11.9083 163.059C9.91724 160.742 8.41968 158.11 6.87972 155.511C5.83539 153.749 4.80273 151.927 4.11703 150.015C3.25593 147.621 2.73966 145.109 2.10115 142.643C1.09046 138.724 0.884649 134.697 0.738128 130.696C0.63055 127.837 1.0034 124.972 1.11784 122.106C1.27767 118.05 2.12233 114.109 3.13559 110.216C3.79009 107.692 4.8824 105.292 5.74174 102.822C6.11729 101.73 6.36574 100.592 6.76557 99.5128C7.01939 98.8396 7.42459 98.2246 7.79162 97.6028C8.85377 95.8181 9.9099 94.0247 11.0112 92.2595C12.14 90.4543 13.2997 88.6783 14.4765 86.9158C15.2393 85.7706 16.0416 84.6504 16.8689 83.5523C17.3661 82.8953 17.9418 82.3063 18.4714 81.6746C19.7857 80.0986 21.0213 78.4527 22.4065 76.938C24.1142 75.0757 25.9469 73.326 27.7156 71.5128C29.2854 69.8975 30.8009 68.2273 32.4198 66.6692C33.7956 65.3446 35.2936 64.1454 36.7355 62.8896C38.1553 61.6516 39.5609 60.3907 41.0125 59.1944C42.2787 58.1607 43.6104 57.2122 44.9089 56.2038C46.6251 54.8729 48.317 53.5272 50.0338 52.2036C50.669 51.7167 51.3207 51.2579 51.9719 50.7918C53.5211 49.6788 55.0534 48.5542 56.6179 47.4785C57.9522 46.5663 59.3448 45.7399 60.688 44.8508C62.6983 43.5166 64.6914 42.1452 66.7088 40.8105C67.3214 40.4051 67.9901 40.0801 68.6105 39.6834C68.9906 39.4361 69.2627 39.2318 68.7514 38.6946C68.2733 38.1936 68.0412 37.4516 67.7068 36.807C67.6633 36.7277 67.7069 36.5155 67.7284 36.5142C67.867 36.4966 68.0803 36.4691 68.1363 36.5476C68.5023 37.0117 68.9124 37.4659 69.1506 37.9979C69.4521 38.6828 69.8176 38.9447 70.4549 38.5834C71.6437 37.9132 72.7912 37.1691 73.9723 36.4922C74.8432 35.9891 75.7468 35.5386 76.6324 35.0655C77.3993 34.6598 78.1557 34.2092 78.9483 33.862C79.4557 33.6361 79.3231 33.3454 79.098 33.0895C78.7683 32.7052 78.3691 32.3998 78.0037 32.0413C77.9322 31.971 77.908 31.8376 77.8628 31.7347C77.9957 31.7357 78.1686 31.6723 78.2468 31.735C78.5676 31.9996 78.9696 32.2447 79.1494 32.5927C79.5207 33.3243 80.0462 33.1501 80.5149 32.912C82.6551 31.8322 84.7539 30.6784 86.9023 29.6127C89.4847 28.3256 92.1094 27.1252 94.6924 25.8453C95.7882 25.3011 96.8222 24.624 97.8996 24.05C98.212 23.8815 98.6123 23.9081 98.9484 23.7692C101.847 22.5666 104.719 21.3074 107.626 20.1353C109.323 19.4469 111.082 18.8987 112.804 18.2543C114.29 17.7009 115.747 17.0727 117.243 16.5551C119.51 15.7737 121.795 15.0805 124.062 14.3208C125.803 13.7355 127.517 13.0625 129.259 12.5007C130.997 11.9447 132.768 11.485 134.523 10.9826C135.078 10.8212 135.635 10.6524 136.181 10.4697C137.932 9.89829 139.678 9.298 141.439 8.77153C142.119 8.57337 142.865 8.59526 143.553 8.43305C144.88 8.12801 146.186 7.73496 147.513 7.42992C148.636 7.16642 149.772 6.96961 150.905 6.73652C151.734 6.5657 152.598 6.49108 153.371 6.18888C153.816 6.01236 154.107 5.45532 154.47 5.07425C154.655 4.87714 154.855 4.69912 155.047 4.50884C155.093 4.71557 155.087 4.95459 155.196 5.11195C155.318 5.29212 155.574 5.55343 155.712 5.52317C157.52 5.14325 159.315 4.69665 161.125 4.32388C161.996 4.14501 162.892 4.10492 163.774 3.96914C164.883 3.79583 165.983 3.6012 167.081 3.40848C169.207 3.0383 171.323 2.63227 173.46 2.31606C174.518 2.16042 175.604 2.1998 176.666 2.09676C179.557 1.81652 182.447 1.49081 185.332 1.2237C186.072 1.15671 186.825 1.26747 187.568 1.25308C189.916 1.18458 192.26 1.07799 194.614 1.00906C197.299 0.927219 199.974 1.18311 202.654 1.35662C203.877 1.43872 205.129 1.41514 206.363 1.55667C207.948 1.7369 209.537 2.08999 211.119 2.06813C212.593 2.04566 213.443 3.48956 214.855 3.4326C214.937 3.42759 215.112 3.71749 215.093 3.74782C214.986 3.89648 214.83 4.09366 214.682 4.09352C214.057 4.10979 213.427 4.08082 212.799 4.04449C211.296 3.96487 209.798 3.83948 208.296 3.789C206.175 3.70889 204.035 3.50237 201.942 3.69752C200.712 3.80899 199.434 3.38593 198.19 4.11224C197.546 4.48855 196.491 4.28331 195.509 4.35232ZM255.528 24.8382C255.297 24.9124 255.059 24.9943 254.83 25.0757C254.822 25.0761 254.859 25.1796 254.87 25.239C255.119 25.1036 255.367 24.9682 255.703 24.8275C255.847 24.7823 255.992 24.7351 256.136 24.6899C256.107 24.617 256.081 24.5439 256.054 24.4709C255.906 24.591 255.761 24.7128 255.528 24.8382ZM301.027 149.909C300.978 150.032 300.936 150.161 300.886 150.284C301.023 150.246 301.184 150.236 301.297 150.162C302.183 149.576 303.068 148.968 303.954 148.377C304.107 148.269 304.279 148.184 304.432 148.071C304.438 148.063 304.326 147.822 304.289 147.832C304.078 147.875 303.846 147.911 303.662 148.019C303.379 148.195 303.138 148.434 302.872 148.621C302.29 149.032 301.7 149.42 301.027 149.909ZM276.229 28.6183C276.035 28.794 275.842 28.9789 275.649 29.1547C275.86 29.2165 276.092 29.3681 276.273 29.3188C276.606 29.2311 276.909 29.0341 277.222 28.8801C277.142 28.7939 277.081 28.6629 276.989 28.6393C276.803 28.5978 276.605 28.6171 276.229 28.6183ZM261.701 25.4581C261.481 25.6884 261.255 25.9189 261.051 26.1628C261.038 26.1782 261.243 26.4572 261.316 26.4454C261.519 26.4111 261.837 26.317 261.864 26.1879C261.934 25.9285 261.823 25.6365 261.701 25.4581ZM311.872 46C312.097 46.061 312.324 46.1219 312.549 46.1828C312.455 45.9043 312.403 45.6087 312.259 45.3552C312.185 45.2249 311.972 45.1704 311.819 45.0832C311.83 45.3285 311.848 45.5752 311.872 46ZM338.217 72.2296C338.223 72.4023 338.221 72.5665 338.226 72.7374C338.477 72.6547 338.737 72.5787 338.989 72.4977C338.791 72.4114 338.593 72.3124 338.217 72.2296ZM212.004 185.617C212.084 185.701 212.164 185.785 212.236 185.872C212.246 185.587 212.277 185.301 212.256 185.018C212.253 184.973 212.058 184.932 211.958 184.894C211.971 185.072 211.985 185.259 212.004 185.617ZM72.4003 39.0787C72.593 39.1871 72.7767 39.2944 72.975 39.3806C72.9898 39.387 73.093 39.1785 73.1515 39.0711C72.9284 39.0391 72.7036 39.0073 72.4003 39.0787ZM234.312 20.0966C234.493 20.1456 234.683 20.216 234.868 20.212C234.91 20.2094 234.953 19.9827 234.988 19.8531C234.793 19.9014 234.59 19.952 234.312 20.0966ZM268.044 28.3998C267.975 28.5679 267.912 28.7285 267.843 28.8985C268.052 28.8256 268.268 28.745 268.476 28.6722C268.395 28.5733 268.308 28.4802 268.044 28.3998ZM252.349 25.0321C252.216 25.1386 252.092 25.25 251.96 25.3565C252.068 25.41 252.244 25.5176 252.257 25.5023C252.365 25.3536 252.441 25.185 252.349 25.0321ZM303.459 37.8647C303.316 37.724 303.18 37.5829 303.037 37.4423C302.999 37.5266 302.908 37.6815 302.922 37.6879C303.063 37.7923 303.223 37.8718 303.459 37.8647ZM45.2988 58.1185C45.5174 58.1872 45.7311 58.2634 45.9498 58.3339C45.9656 58.2564 45.9887 58.1803 46.006 58.0972C45.7979 58.0735 45.5897 58.0479 45.2988 58.1185ZM301.601 148.078C301.723 148.13 301.852 148.175 301.973 148.228C301.993 148.085 302.01 147.934 302.03 147.791C301.916 147.849 301.803 147.916 301.601 148.078ZM261.736 27.1613C261.841 27.2751 261.944 27.3872 262.05 27.5011C262.096 27.4454 262.144 27.3897 262.192 27.3357C262.067 27.245 261.942 27.156 261.736 27.1613ZM232.152 19.689C232.021 19.6078 231.889 19.5265 231.757 19.4435C231.712 19.5283 231.668 19.6147 231.621 19.6923C231.771 19.7196 231.92 19.756 232.152 19.689ZM312.732 140.007C312.889 140.149 313.041 140.281 313.198 140.421C313.231 140.381 313.285 140.31 313.285 140.31C313.128 140.171 312.972 140.045 312.732 140.007ZM256.358 26.4127C256.283 26.297 256.216 26.1881 256.141 26.0743C256.066 26.1608 255.992 26.2473 255.918 26.3338C256.032 26.3943 256.154 26.447 256.358 26.4127ZM147.186 9.01306C147.234 9.1595 147.281 9.30605 147.329 9.45249C147.401 9.42626 147.472 9.40003 147.544 9.37198C147.452 9.2209 147.36 9.06982 147.186 9.01306Z" fill="#BDFF00"/>
</svg>
