<svg width="132" height="123" viewBox="0 0 132 123" fill="none" xmlns="http://www.w3.org/2000/svg">
<mask id="mask0_17_474" style="mask-type:luminance" maskUnits="userSpaceOnUse" x="4" y="-1" width="124" height="124">
<path d="M4.17957 35.223L104.79 -0.000321488L127.913 87.2228L27.3023 122.446L4.17957 35.223Z" fill="white"/>
</mask>
<g mask="url(#mask0_17_474)">
<path d="M99.5149 82.01C96.8925 71.8337 92.8493 61.8457 83.8139 57.7406C79.6239 55.8393 74.4276 54.8879 69.1755 55.0649C62.3109 55.2951 55.7094 57.5111 49.3282 59.656C41.8831 62.1584 34.852 64.5189 27.3562 64.0514C23.051 63.784 15.417 62.2174 12.6895 54.7683C9.97816 47.37 12.4305 38.5891 14.1342 34.0121L11.2871 32.7347C9.39774 37.8077 6.7001 47.5902 9.82878 56.1266C13.185 65.2879 22.1075 67.1821 27.127 67.4969C35.1647 68.0005 42.7901 65.4379 50.1663 62.9596C56.3556 60.8819 62.754 58.731 69.2111 58.5157C74.0453 58.3542 78.8012 59.2161 82.6068 60.9457C90.5347 64.5438 94.1125 73.4461 96.5773 83.1187C89.3518 74.655 78.1397 71.0206 67.3347 74.8034L68.2073 78.0949C81.8415 73.3216 96.2002 81.7673 100.218 96.922L103.18 95.885C99.1622 80.7303 106.984 64.5192 120.619 59.7459L119.746 56.4544C108.962 60.2267 101.427 70.389 99.5149 82.01Z" fill="#BDFF00"/>
</g>
</svg>
