<svg width="102" height="171" viewBox="0 0 102 171" fill="none" xmlns="http://www.w3.org/2000/svg">
<mask id="mask0_17_152" style="mask-type:luminance" maskUnits="userSpaceOnUse" x="1" y="35" width="100" height="101">
<path d="M41.0096 35.7366L100.81 80.8165L61.6485 135.802L1.84774 90.7216L41.0096 35.7366Z" fill="white"/>
</mask>
<g mask="url(#mask0_17_152)">
<mask id="mask1_17_152" style="mask-type:luminance" maskUnits="userSpaceOnUse" x="-8" y="68" width="107" height="50">
<path d="M-7.72852 68.4219L92.4161 70.1793L98.9678 117.007L-1.17876 115.252L-7.72852 68.4219Z" fill="white"/>
</mask>
<g mask="url(#mask1_17_152)">
<mask id="mask2_17_152" style="mask-type:luminance" maskUnits="userSpaceOnUse" x="-8" y="68" width="107" height="49">
<path d="M-1.19514 114.999L98.9515 116.754L92.4017 69.9238L-7.74494 68.169L-1.19514 114.999Z" fill="white"/>
</mask>
<g mask="url(#mask2_17_152)">
<mask id="mask3_17_152" style="mask-type:luminance" maskUnits="userSpaceOnUse" x="-8" y="68" width="107" height="49">
<path d="M-1.19514 114.999L98.9515 116.754L92.4017 69.9238L-7.74494 68.169L-1.19514 114.999Z" fill="white"/>
</mask>
<g mask="url(#mask3_17_152)">
<path d="M5.05823 88.7988C26.9683 92.0713 48.8773 93.0737 70.2649 91.646C76.3307 91.2403 82.3708 90.6482 88.3599 89.8791C88.2953 90.9059 88.2595 91.9382 88.1922 92.9427C86.9004 91.8629 85.2113 91.498 83.7003 91.0598C81.9144 90.5363 80.1303 90.0429 78.3539 89.5715C74.5291 88.5784 70.6985 87.7114 66.8679 86.8444C59.3105 85.1152 51.7215 83.3582 44.294 80.7003C42.1383 79.943 41.2243 77.115 43.861 77.0331C59.4849 76.5362 75.0956 75.9072 90.656 75.1262C91.7611 75.0671 93.023 75.554 93.6205 76.6725C94.1145 77.5828 93.7921 78.8145 92.7116 78.8718C76.7907 79.6744 60.8461 80.3206 44.8561 80.8144C44.7094 79.5997 44.5619 78.36 44.4201 77.145C52.1766 79.9368 60.0833 81.7255 67.9851 83.5147C71.8994 84.4082 75.8088 85.302 79.7193 86.3515C83.2483 87.2885 87.5841 88.0354 90.5555 90.5606C91.6744 91.51 92.0735 93.4243 90.3878 93.6242C69.0839 96.3943 47.1188 96.8325 24.9708 94.8433C18.6691 94.297 12.3577 93.5154 6.05331 92.5801C4.96435 92.4069 3.7236 91.6875 3.42858 90.524C3.15539 89.4869 3.99772 88.6512 5.05823 88.7988Z" fill="#231F20" fill-opacity="0.9098"/>
</g>
</g>
</g>
</g>
</svg>
